<?xml version="1.0" standalone="yes"?>
<svg xmlns="http://www.w3.org/2000/svg" width="152" height="40">
<path style="fill:#010101; stroke:none;" d="M0 0L0 40L12 40C9.42349 34.8909 -5.86787 28.5442 6 22C5.28044 18.9777 4.95185 16.1169 5.03627 13C5.11434 10.1173 4.50958 4.846 6.63889 2.6034C15.4578 -6.68472 31.6903 9.60439 34.5316 17C36.0323 20.9059 37.8478 29.2153 32.8519 31.3966C29.7627 32.7454 25.3042 32 22 32L23 40L152 40L152 0L0 0z"/>
<path style="fill:#e41634; stroke:none;" d="M6 22C1.84858 23.3778 -0.164106 30.7477 3.6034 33.9915C9.11404 38.7361 16.0274 40 23 40L22 32C28.4363 32 44.6296 28.2885 34 19C34.9005 11.3177 26.8718 2.19631 19 3C16.9855 0.205536 7.15435 -0.531597 5.49074 3.21296C3.52028 7.64821 4.56577 17.5957 6 22z"/>
<path style="fill:#fffefe; stroke:none;" d="M16 1L17 2L16 1M19 2L20 3L19 2z"/>
<path style="fill:#01ffff; stroke:none;" d="M23 5L24 6L23 5M12 7L13 8L12 7z"/>
<path style="fill:#fffefe; stroke:none;" d="M17 11L17 23L27 20C25.568 15.1177 21.826 12.3148 17 11M14 15L15 16L14 15M39 15L39 27L144 27L145 15L39 15z"/>
<path style="fill:#2f65ff; stroke:none;" d="M34 18L35 19L34 18z"/>
<path style="fill:#fffefe; stroke:none;" d="M6 23L7 24L6 23M12 25L13 26L12 25z"/>
</svg>
